<svg xmlns="http://www.w3.org/2000/svg" xmlns:xlink="http://www.w3.org/1999/xlink" width="32" height="32"><defs><linearGradient id="b" x1="-250.47" y1="1022.9" x2="-218.47" y2="1022.9" gradientTransform="matrix(.1 .99 .99 -.1 -977.13 354.97)" gradientUnits="userSpaceOnUse"><stop offset="0" stop-color="#01e8f8"/><stop offset="1" stop-color="#01e8f8" stop-opacity=".2"/></linearGradient><linearGradient id="c" x1="-271" y1="661.2" x2="-271" y2="682.42" gradientTransform="translate(287 -650)" gradientUnits="userSpaceOnUse"><stop offset="0" stop-color="#01e8f8"/><stop offset="1" stop-color="#01e8f8" stop-opacity="0"/></linearGradient><linearGradient id="a" x1="-260.95" y1="662.61" x2="-260.35" y2="670.45" gradientTransform="translate(287 -650)" gradientUnits="userSpaceOnUse"><stop offset="0" stop-color="#01e8f7"/><stop offset="1" stop-color="#00c2ff"/></linearGradient><linearGradient id="d" x1="-275.03" y1="657.52" x2="-266.78" y2="670.61" gradientTransform="translate(287 -650)" gradientUnits="userSpaceOnUse"><stop offset="0" stop-color="#01e8f7"/><stop offset="1" stop-color="#00b3ec"/></linearGradient><linearGradient id="e" x1="-271.68" y1="663.62" x2="-270.94" y2="684.73" xlink:href="#a"/></defs><circle cx="16" cy="16" r="16" fill-opacity=".15" fill="url(#b)"/><circle cx="16" cy="16" r="16" fill-opacity=".05" fill="url(#c)"/><path d="M28.54 15c.09-2.33-1.47-3.8-3.29-4.84L24 17a1.64 1.64 0 011.39.43 1.17 1.17 0 01.12 1.57c1.04-.15 2.86-1.27 3.03-4z" fill="url(#a)"/><path d="M13 6.83l-1.41-1.38a22.43 22.43 0 0113.15 3.46 3.51 3.51 0 010 .95l.43.26a5.32 5.32 0 01.6 4.06A4.21 4.21 0 0124.13 17a2.46 2.46 0 00-2.34 2.25c-.43 1.9-1.12 2.25-1.47 2.25l-8 .08L7 18.51l-.78-6.4 1.47-2L10.38 8l1.9-.78zm9.52 2.68a7.83 7.83 0 01-.78.61 4.38 4.38 0 01-2.77-1.47 10 10 0 015 1.21 13.48 13.48 0 00-1.48-.35z" fill-rule="evenodd" fill="url(#d)"/><path d="M21.71 19.29a11.16 11.16 0 01-4.85 1.12c-5 0-9.16-3.2-9.16-7.09 0-2.86 2.3-5.32 5.45-6.49a11.47 11.47 0 00-11 11.25C2.16 25 8.39 30.79 16 30.79A14.9 14.9 0 0029 23c-3.49.87-7.46-.6-7.29-3.71z" fill-rule="evenodd" fill="url(#e)"/></svg>