<svg width="49" height="49" fill="none" xmlns="http://www.w3.org/2000/svg"><circle opacity=".6" cx="24.309" cy="24.013" r="24" fill="#EBFAFD"/><path d="M16.504 19.156c1.874.624 4.358.967 6.994.967s5.12-.343 6.994-.967c1.997-.664 3.097-1.596 3.097-2.625 0-1.028-1.1-1.96-3.097-2.625-1.874-.623-4.358-.966-6.994-.966s-5.12.343-6.994.966c-1.997.665-3.097 1.597-3.097 2.625 0 1.029 1.1 1.96 3.097 2.625z" fill="url(#paint0_linear)"/><path fill-rule="evenodd" clip-rule="evenodd" d="M32.9 20.527c-.158 0-.33.052-.524.16-.287.158-.65.28-1.034.41l-.111.037c-2.097.707-4.843 1.097-7.733 1.097-2.89 0-5.636-.39-7.733-1.097-.593-.2-.757-.263-.976-.373a1.376 1.376 0 00-.617-.172.716.716 0 00-.718.526 1.505 1.505 0 00-.047.37c0 1.043 1.1 1.989 3.097 2.663 1.874.632 4.358.98 6.994.98s5.12-.348 6.994-.98c1.997-.674 3.097-1.62 3.097-2.663 0-.162-.027-.325-.082-.486-.137-.41-.439-.472-.607-.472z" fill="url(#paint1_linear)"/><path d="M36.356 30.16v-1.452c0-1.605-1.412-2.905-3.154-2.905-1.741 0-3.153 1.3-3.153 2.905v1.452c-.58 0-1.051.434-1.051.968v4.843c0 .535.47.968 1.051.968h6.307c.58 0 1.051-.433 1.051-.968v-4.842c0-.535-.47-.969-1.051-.969zM31.1 28.708c0-1.07.942-1.937 2.102-1.937 1.162 0 2.103.867 2.103 1.937v1.452H31.1v-1.452zm5.256 7.263h-6.307v-4.842h6.307v4.842z" fill="url(#paint2_linear)"/><path fill-rule="evenodd" clip-rule="evenodd" d="M36.556 28.707v1.268c.585.088 1.05.56 1.05 1.153v4.843c0 .66-.575 1.168-1.25 1.168h-6.307c-.675 0-1.251-.508-1.251-1.168v-4.843c0-.594.466-1.064 1.05-1.153v-1.268c0-1.73 1.518-3.105 3.354-3.105 1.837 0 3.354 1.375 3.354 3.105zm-3.354-1.736c-1.066 0-1.902.792-1.902 1.736v1.253h3.805v-1.253c0-.944-.836-1.736-1.903-1.736zm-2.953 8.8h5.907v-4.443h-5.907v4.443zm6.107-5.61c.58 0 1.051.433 1.051.967v4.843c0 .535-.47.968-1.051.968h-6.307c-.58 0-1.051-.433-1.051-.968v-4.842c0-.535.47-.969 1.051-.969v-1.452c0-1.605 1.412-2.905 3.154-2.905 1.741 0 3.153 1.3 3.153 2.905v1.452zm-3.154-3.39c-1.16 0-2.102.867-2.102 1.937v1.452h4.205v-1.452c0-1.07-.941-1.937-2.102-1.937zm3.154 9.2v-4.842h-6.307v4.842h6.307z" fill="url(#paint3_linear)"/><path fill-rule="evenodd" clip-rule="evenodd" d="M26.757 31.673c-1.046.112-2.142.17-3.259.17-2.89 0-5.636-.389-7.733-1.096-.593-.2-.757-.264-.976-.373a1.375 1.375 0 00-.617-.172.716.716 0 00-.718.526 1.506 1.506 0 00-.047.37c0 1.043 1.1 1.988 3.097 2.662 1.874.633 4.358.98 6.994.98 1.126 0 2.224-.063 3.259-.185v-2.882z" fill="url(#paint4_linear)"/><path fill-rule="evenodd" clip-rule="evenodd" d="M27.79 26.612c-1.346.198-2.8.302-4.292.302-2.89 0-5.636-.39-7.733-1.097-.593-.2-.757-.263-.976-.373a1.375 1.375 0 00-.617-.172.716.716 0 00-.718.526 1.506 1.506 0 00-.047.37c0 1.043 1.1 1.989 3.097 2.663 1.874.632 4.358.98 6.994.98 1.509 0 2.968-.114 4.291-.33v-2.869z" fill="url(#paint5_linear)"/><defs><linearGradient id="paint0_linear" x1="26.806" y1="-28.904" x2="1.911" y2="24.769" gradientUnits="userSpaceOnUse"><stop stop-color="#32FFF5"/><stop offset="1" stop-color="#01BFE3"/></linearGradient><linearGradient id="paint1_linear" x1="26.806" y1="-28.904" x2="1.911" y2="24.769" gradientUnits="userSpaceOnUse"><stop stop-color="#32FFF5"/><stop offset="1" stop-color="#01BFE3"/></linearGradient><linearGradient id="paint2_linear" x1="26.806" y1="-28.904" x2="1.911" y2="24.769" gradientUnits="userSpaceOnUse"><stop stop-color="#32FFF5"/><stop offset="1" stop-color="#01BFE3"/></linearGradient><linearGradient id="paint3_linear" x1="26.806" y1="-28.904" x2="1.911" y2="24.769" gradientUnits="userSpaceOnUse"><stop stop-color="#32FFF5"/><stop offset="1" stop-color="#01BFE3"/></linearGradient><linearGradient id="paint4_linear" x1="26.806" y1="-28.904" x2="1.911" y2="24.769" gradientUnits="userSpaceOnUse"><stop stop-color="#32FFF5"/><stop offset="1" stop-color="#01BFE3"/></linearGradient><linearGradient id="paint5_linear" x1="26.806" y1="-28.904" x2="1.911" y2="24.769" gradientUnits="userSpaceOnUse"><stop stop-color="#32FFF5"/><stop offset="1" stop-color="#01BFE3"/></linearGradient></defs></svg>