<svg width="53" height="53" fill="none" xmlns="http://www.w3.org/2000/svg"><circle cx="26.939" cy="26.77" r="26" fill="url(#paint0_linear)" fill-opacity=".05"/><path d="M47.255 25.053c.18-3.747-2.436-6.232-5.388-7.938l-1.92 11.276c1.329-.074 1.979.43 2.215.667.295.297 1.033 1.187.148 2.597 1.845-.297 4.727-2.077 4.945-6.602z" fill="url(#paint1_linear)"/><path fill-rule="evenodd" clip-rule="evenodd" d="M22.08 11.923l-2.29-2.3c3.446-.42 12.535.12 21.334 5.638.148.594 0 1.484 0 1.484l.739.37c.64.916 1.727 3.517.96 6.603-.768 3.086-2.092 4.401-2.658 4.673-1.181 0-3.19.683-3.839 3.71-.65 3.026-1.895 3.684-2.436 3.634l-12.992.148-8.563-5.044-1.255-10.46 2.436-3.263 4.355-3.561 3.1-1.261 1.108-.371zm15.343 4.322a4.823 4.823 0 01-1.261.961c-3.345-.712-4.55-2.442-4.55-2.442 3.155-.02 6.003.73 8.086 2 0 0-1.128-.365-2.275-.519z" fill="url(#paint2_linear)"/><path fill-rule="evenodd" clip-rule="evenodd" d="M36.21 32.102c-2.293 1.126-5.013 1.778-7.929 1.778-8.194 0-14.837-5.148-14.837-11.498 0-4.692 3.626-8.727 8.825-10.515-9.886.57-17.83 8.51-17.83 18.31 0 11.308 10.08 20.651 22.515 20.651 9.285 0 17.014-5.383 21.056-12.586-5.56 1.25-12.143-1.127-11.8-6.14z" fill="url(#paint3_linear)"/><defs><linearGradient id="paint0_linear" x1="26.939" y1="18.965" x2="26.939" y2="53.453" gradientUnits="userSpaceOnUse"><stop stop-color="#01E8F8"/><stop offset="1" stop-color="#01E8F8" stop-opacity="0"/></linearGradient><linearGradient id="paint1_linear" x1="43.637" y1="21.228" x2="44.624" y2="33.966" gradientUnits="userSpaceOnUse"><stop stop-color="#01E8F7"/><stop offset="1" stop-color="#00C2FF"/></linearGradient><linearGradient id="paint2_linear" x1="21.436" y1="12.34" x2="34.83" y2="33.598" gradientUnits="userSpaceOnUse"><stop stop-color="#01E8F7"/><stop offset="1" stop-color="#00B3EC"/></linearGradient><linearGradient id="paint3_linear" x1="26.411" y1="22.887" x2="27.607" y2="57.184" gradientUnits="userSpaceOnUse"><stop stop-color="#01E8F7"/><stop offset="1" stop-color="#00C2FF"/></linearGradient></defs></svg>