<svg width="49" height="49" fill="none" xmlns="http://www.w3.org/2000/svg"><path d="M34.809 24.006v-2.142c0-.79-.672-1.429-1.5-1.429h-16.5c-.828 0-1.5-.64-1.5-1.429 0-.787.672-1.428 1.5-1.428h16.5c.828 0 1.5-.64 1.5-1.429s-.672-1.428-1.5-1.428h-16.5c-2.482 0-4.5 1.922-4.5 4.285v12.858c0 1.577 1.343 2.857 3 2.857h18c.828 0 1.5-.64 1.5-1.429V31.15c.828 0 1.5-.64 1.5-1.428v-4.286c0-.789-.672-1.429-1.5-1.429zm-2.25 5c-.829 0-1.5-.64-1.5-1.428 0-.79.671-1.429 1.5-1.429.828 0 1.5.64 1.5 1.429s-.672 1.428-1.5 1.428z" fill="url(#paint0_linear)"/><circle opacity=".6" cx="24.309" cy="24.852" r="24" fill="#EBFAFD"/><path d="M34.809 24.006v-2.142c0-.79-.672-1.429-1.5-1.429h-16.5c-.828 0-1.5-.64-1.5-1.429 0-.787.672-1.428 1.5-1.428h16.5c.828 0 1.5-.64 1.5-1.429s-.672-1.428-1.5-1.428h-16.5c-2.482 0-4.5 1.922-4.5 4.285v12.858c0 1.577 1.343 2.857 3 2.857h18c.828 0 1.5-.64 1.5-1.429V31.15c.828 0 1.5-.64 1.5-1.428v-4.286c0-.789-.672-1.429-1.5-1.429zm-2.25 5c-.829 0-1.5-.64-1.5-1.428 0-.79.671-1.429 1.5-1.429.828 0 1.5.64 1.5 1.429s-.672 1.428-1.5 1.428z" fill="url(#paint1_linear)"/><defs><linearGradient id="paint0_linear" x1="24.309" y1="14.721" x2="-24.465" y2="72.816" gradientUnits="userSpaceOnUse"><stop stop-color="#fff"/><stop offset="1" stop-color="#fff" stop-opacity="0"/></linearGradient><linearGradient id="paint1_linear" x1="25.597" y1="-19.861" x2="7.471" y2="27.035" gradientUnits="userSpaceOnUse"><stop stop-color="#32FFF5"/><stop offset="1" stop-color="#01BFE3"/></linearGradient></defs></svg>