<svg fill="none" height="32" width="33" xmlns="http://www.w3.org/2000/svg" xmlns:xlink="http://www.w3.org/1999/xlink"><linearGradient id="a" gradientUnits="userSpaceOnUse" x1="16.69" x2="16.69" y1="11.197" y2="32.421"><stop offset="0" stop-color="#01e8f8"/><stop offset="1" stop-color="#01e8f8" stop-opacity="0"/></linearGradient><linearGradient id="b"><stop offset="0" stop-color="#01e8f7"/><stop offset="1" stop-color="#00c2ff"/></linearGradient><linearGradient id="c" gradientUnits="userSpaceOnUse" x1="26.966" x2="27.573" xlink:href="#b" y1="12.589" y2="20.428"/><linearGradient id="d" gradientUnits="userSpaceOnUse" x1="13.303" x2="21.546" y1="7.12" y2="20.202"><stop offset="0" stop-color="#01e8f7"/><stop offset="1" stop-color="#00b3ec"/></linearGradient><linearGradient id="e" gradientUnits="userSpaceOnUse" x1="16.365" x2="17.101" xlink:href="#b" y1="13.61" y2="34.717"/><circle cx="16.69" cy="16" fill="url(#a)" fill-opacity=".05" r="16"/><path d="m29.193 14.943c.11-2.305-1.5-3.835-3.317-4.884l-1.18 6.938c.817-.045 1.217.265 1.362.411.182.183.636.73.091 1.598 1.136-.183 2.91-1.278 3.044-4.063z" fill="url(#c)"/><g clip-rule="evenodd" fill-rule="evenodd"><path d="m13.7 6.864-1.41-1.416c2.12-.258 7.714.073 13.128 3.47.091.365 0 .913 0 .913l.455.228c.393.563 1.063 2.164.59 4.063-.472 1.899-1.287 2.708-1.635 2.876-.727 0-1.963.42-2.362 2.282-.4 1.863-1.166 2.268-1.5 2.237l-7.994.091-5.27-3.104-.772-6.436 1.499-2.009 2.68-2.191 1.908-.776.681-.228zm9.442 2.66a2.97 2.97 0 0 1 -.776.591c-2.058-.438-2.8-1.503-2.8-1.503 1.942-.012 3.694.45 4.976 1.231 0 0-.694-.225-1.4-.32z" fill="url(#d)"/><path d="m22.396 19.281c-1.412.693-3.085 1.094-4.88 1.094-5.043 0-9.13-3.168-9.13-7.075 0-2.888 2.23-5.37 5.43-6.471-6.083.35-10.972 5.237-10.972 11.267 0 6.959 6.203 12.71 13.856 12.71 5.713 0 10.47-3.314 12.957-7.746-3.422.77-7.473-.694-7.261-3.779z" fill="url(#e)"/></g></svg>