<svg xmlns="http://www.w3.org/2000/svg" viewBox="0 0 1737 1004"><defs><linearGradient id="a" x1="1612.95" y1="201.34" x2="1642.57" y2="-181" gradientTransform="matrix(1 0 0 -1 -294 620)" gradientUnits="userSpaceOnUse"><stop offset="0" stop-color="#f4f8f9"/><stop offset="1" stop-color="#f0f4f4"/></linearGradient><linearGradient id="b" x1="1012.79" y1="455.81" x2="1255.69" y2="-226.99" gradientTransform="matrix(1 0 0 -1 -294 620)" gradientUnits="userSpaceOnUse"><stop offset="0" stop-color="#f4f9fa"/><stop offset=".51" stop-color="#f1f5f5"/></linearGradient><linearGradient id="c" x1="733.78" y1="264.36" x2="1347.97" y2="-633.85" gradientTransform="matrix(1 0 0 -1 -294 620)" gradientUnits="userSpaceOnUse"><stop offset="0" stop-color="#f5f9fa"/><stop offset="1" stop-color="#f4f8f8"/></linearGradient></defs><path d="M1440.44 532.47c5.41-112.44-73.11-187-161.74-238.24l-57.61 338.44c39.88-2.23 59.37 12.91 66.47 20 8.86 8.91 31 35.63 4.43 77.93 55.4-8.87 141.91-62.31 148.45-198.13z" fill="url(#a)"/><path d="M684.76 138.45l-68.68-69C719.47 56.81 992.3 73 1256.4 238.64c4.44 17.82 0 44.54 0 44.54l22.16 11.13c19.21 27.46 51.85 105.54 28.81 198.16s-62.78 132.11-79.77 140.27c-35.45 0-104.45 18.26-118.65 111.36-19.49 90.84-53.43 110.55-69.68 109.07l-390 4.45-257-151.4-37.64-313.94 73.11-98 130.73-106.85 93.06-37.85zm460.56 129.69c-17.19 17.91-33.27 26.5-37.86 28.83-100.41-21.36-136.59-73.31-136.59-73.31 94.71-.58 180.2 22 242.74 60.06 0 0-33.85-10.98-68.29-15.58z" fill-rule="evenodd" fill="url(#b)"/><path d="M1109 744.1c-68.83 33.77-150.44 53.33-237.94 53.33-246 0-445.35-154.51-445.35-345.11 0-140.8 103.11-260.19 259.1-313.87-296.69 17.1-529.41 253.74-529.41 547.83 0 339.43 302.55 619.89 675.78 619.89 278.69 0 510.67-161.59 632-377.78-166.98 37.54-364.56-33.83-354.18-184.29z" fill-rule="evenodd" fill="url(#c)"/></svg>