<svg width="1440" height="416" viewBox="0 0 1440 416" fill="none" xmlns="http://www.w3.org/2000/svg">
<path d="M0.310059 0.865234H1440.31V415.186H0.310059V0.865234Z" fill="white"/>
<g opacity="0.4">
<path d="M1107.61 303.747L1067.62 260.412H1143.27L1183.25 303.747H1107.61Z" fill="#C9E0FF"/>
<path d="M1183.23 303.65H1107.57V372.737H1183.23V303.65Z" fill="url(#paint0_linear)"/>
<path fill-rule="evenodd" clip-rule="evenodd" d="M1107.57 303.697L1107.61 303.747H1107.57V372.736H1067.62V303.747H1067.62V260.412L1107.53 303.65H1107.57V303.697Z" fill="white"/>
<path d="M1153.88 320.693H1137.62V331.603H1153.88V320.693Z" fill="#C9E0FF"/>
<path d="M1153.88 345.672H1137.62V356.581H1153.88V345.672Z" fill="#C9E0FF"/>
<path d="M942.094 297.44L904.54 243.021H954.029L991.582 297.44H942.094Z" fill="url(#paint1_linear)"/>
<path d="M991.582 297.439H942.093V371.789H991.582V297.439Z" fill="url(#paint2_linear)"/>
<path fill-rule="evenodd" clip-rule="evenodd" d="M904.54 243.021L942.094 297.44H942.082V371.79H904.54L904.54 297.44V243.021Z" fill="white"/>
<path fill-rule="evenodd" clip-rule="evenodd" d="M920.403 297.08H926.231V319.785H920.403V297.08ZM920.403 333.562H926.231V356.267H920.403V333.562Z" fill="url(#paint3_linear)"/>
<path opacity="0.8" d="M1067.82 232.577L1029.66 201.597V153.729L1067.82 184.72V232.577Z" fill="#C9E0FF"/>
<path d="M991.485 232.577L1029.66 201.597V153.729L991.485 184.72V232.577Z" fill="white"/>
<path fill-rule="evenodd" clip-rule="evenodd" d="M991.485 232.577L991.485 232.578H991.485V372.861H1067.82V232.577H1067.82L1029.66 201.598L991.485 232.577H991.485V232.577Z" fill="white"/>
<path fill-rule="evenodd" clip-rule="evenodd" d="M1026.62 233.635H1032.44V256.339H1026.62V233.635ZM1026.62 270.115H1032.44V292.82H1026.62V270.115Z" fill="url(#paint4_linear)"/>
<path fill-rule="evenodd" clip-rule="evenodd" d="M102.764 237.383H176.356V283.829H212.546V371.78H176.356V371.781H102.764V237.383Z" fill="url(#paint5_linear)"/>
<path d="M102.854 237.484H0.310059V371.882H102.854V237.484Z" fill="white"/>
<path fill-rule="evenodd" clip-rule="evenodd" d="M108.635 172.996L140.955 207.123H76.3146L108.635 172.996ZM76.3145 207.123H140.955V237.485H76.3145V207.123Z" fill="url(#paint6_linear)"/>
<path d="M76.3146 207.123L108.635 172.996H32.6304L0.310059 207.123H76.3146Z" fill="url(#paint7_linear)"/>
<path d="M76.3146 207.123H0.310059V237.485H76.3146V207.123Z" fill="white"/>
<path d="M19.2616 217.752H9.00488V231.319H19.2616V217.752Z" fill="#C9E0FF"/>
<path d="M44.2274 217.752H33.9707V231.319H44.2274V217.752Z" fill="#C9E0FF"/>
<path d="M69.1927 217.752H58.936V231.319H69.1927V217.752Z" fill="#C9E0FF"/>
<path d="M241.363 225.633L186.42 274.947H333.464L388.396 225.633H241.363Z" fill="url(#paint8_linear)"/>
<path fill-rule="evenodd" clip-rule="evenodd" d="M443.339 274.946L388.396 225.633L333.464 274.946H333.464V371.884H443.351V274.946H443.339Z" fill="url(#paint9_linear)"/>
<path d="M287.122 274.947L259.942 250.553H314.302L287.122 274.947Z" fill="url(#paint10_linear)"/>
<path fill-rule="evenodd" clip-rule="evenodd" d="M287.122 274.947H333.464V371.885H186.42V274.947H232.762L259.942 250.553L287.122 274.947Z" fill="white"/>
<path d="M207.318 286.404H200.406V305.391H207.318V286.404Z" fill="#C9E0FF"/>
<path d="M235.466 286.404H228.554V305.391H235.466V286.404Z" fill="#C9E0FF"/>
<path d="M263.613 286.404H256.702V305.391H263.613V286.404Z" fill="#C9E0FF"/>
<path d="M291.772 286.404H284.861V305.391H291.772V286.404Z" fill="#C9E0FF"/>
<path d="M319.92 286.404H313.009V305.391H319.92V286.404Z" fill="#C9E0FF"/>
<path d="M207.318 319.936H200.406V338.922H207.318V319.936Z" fill="#C9E0FF"/>
<path d="M235.466 319.936H228.554V338.922H235.466V319.936Z" fill="#C9E0FF"/>
<path d="M263.613 319.936H256.702V338.922H263.613V319.936Z" fill="#C9E0FF"/>
<path d="M291.772 319.936H284.861V338.922H291.772V319.936Z" fill="#C9E0FF"/>
<path d="M1385.22 225.633L1440.17 274.947H1293.12L1238.19 225.633H1385.22Z" fill="url(#paint11_linear)"/>
<path fill-rule="evenodd" clip-rule="evenodd" d="M1183.25 274.947H1293.12L1238.19 225.633L1183.25 274.947ZM1293.21 274.98H1183.23V372.735H1293.21V274.98Z" fill="white"/>
<path d="M1339.46 274.947L1366.64 250.553H1312.28L1339.46 274.947Z" fill="url(#paint12_linear)"/>
<path fill-rule="evenodd" clip-rule="evenodd" d="M1366.64 250.553L1393.82 274.947L1393.76 274.981H1440.31V372.736H1293.21V274.981H1339.52L1339.46 274.947L1366.64 250.553Z" fill="url(#paint13_linear)"/>
<path d="M1419.27 286.404H1426.18V305.391H1419.27V286.404Z" fill="#C9E0FF"/>
<path d="M1391.12 286.404H1398.03V305.391H1391.12V286.404Z" fill="#C9E0FF"/>
<path d="M1362.97 286.404H1369.88V305.391H1362.97V286.404Z" fill="#C9E0FF"/>
<path d="M1334.81 286.404H1341.72V305.391H1334.81V286.404Z" fill="#C9E0FF"/>
<path d="M1306.66 286.404H1313.58V305.391H1306.66V286.404Z" fill="#C9E0FF"/>
<path d="M1419.27 319.938H1426.18V338.924H1419.27V319.938Z" fill="#C9E0FF"/>
<path d="M1362.97 319.938H1369.88V338.924H1362.97V319.938Z" fill="#C9E0FF"/>
<path d="M1334.81 319.938H1341.72V338.924H1334.81V319.938Z" fill="#C9E0FF"/>
<path d="M1306.66 319.938H1313.58V338.924H1306.66V319.938Z" fill="#C9E0FF"/>
<path d="M538.599 58.1914V371.796H440.206V118.168L440.99 117.776L442.95 116.6L462.942 104.448L465.686 102.488L487.638 89.1598L490.774 87.5918L512.335 74.2637L515.471 72.3036L538.599 58.1914Z" fill="white"/>
<path d="M609.945 58.1914H538.6V371.796H609.945V58.1914Z" fill="url(#paint14_linear)"/>
<path fill-rule="evenodd" clip-rule="evenodd" d="M564.863 58.1914H561.727V116.6H537.814V119.736H561.727V168.345H537.814V171.481H561.727V220.482H537.814V223.618H561.727V272.619H537.814V275.755H561.727V324.363H537.814V327.5H561.727V371.796H564.863V327.5H586.815V371.796H589.951V327.5H610.336V324.363H589.951V275.755H610.336V272.619H589.951V223.618H610.336V220.482H589.951V171.481H610.336V168.345H589.951V119.736H610.336V116.6H589.951V58.1914H586.815V116.6H564.863V58.1914ZM586.815 119.736H564.863V168.345H586.815V119.736ZM586.815 171.481H564.863V220.482H586.815V171.481ZM586.815 223.618H564.863V272.619H586.815V223.618ZM586.815 275.755H564.863V324.363H586.815V275.755Z" fill="url(#paint15_linear)" fill-opacity="0.42"/>
<path fill-rule="evenodd" clip-rule="evenodd" d="M515.47 119.736V168.344H538.599V171.48H515.47V220.481H538.599V223.617H515.47V272.618H538.599V275.754H515.47V324.362H538.599V327.498H515.47V371.795H512.334V327.498H490.775V371.795H487.638V327.498H465.686V371.795H462.942V327.498H440.206V324.362H462.942V275.754H440.206V272.618H462.942V223.617H440.206V220.481H462.942V171.48H440.206V168.344H462.942V119.736H440.206V118.168L440.99 117.776L442.95 116.6H462.942V104.447L465.686 102.487V116.6H487.638V89.1591L490.775 87.5911V116.6H512.334V74.2628L515.47 72.3027V116.6H538.599V119.736H515.47ZM465.686 324.362H487.638V275.754H465.686V324.362ZM490.775 324.362H512.334V275.754H490.775V324.362ZM512.334 223.617V272.618H490.775V223.617H512.334ZM487.638 223.617V272.618H465.686V223.617H487.638ZM465.686 220.481H487.638V171.48H465.686V220.481ZM490.775 220.481H512.334V171.48H490.775V220.481ZM512.334 119.736V168.344H490.775V119.736H512.334ZM487.638 119.736V168.344H465.686V119.736H487.638Z" fill="url(#paint16_linear)"/>
<path d="M738.921 93.0996H609.866V371.843H738.921V93.0996Z" fill="white"/>
<path d="M738.921 93.0996H688.65V371.843H738.921V93.0996Z" fill="url(#paint17_linear)"/>
<path d="M725.79 124.988H703.281V131.741H725.79V124.988Z" fill="#C9E0FF"/>
<path d="M725.79 150.125H703.281V156.878H725.79V150.125Z" fill="#C9E0FF"/>
<path d="M725.79 174.885H703.281V181.638H725.79V174.885Z" fill="#C9E0FF"/>
<path d="M725.79 200.021H703.281V206.774H725.79V200.021Z" fill="#C9E0FF"/>
<path d="M725.79 224.781H703.281V231.534H725.79V224.781Z" fill="#C9E0FF"/>
<path d="M725.79 249.541H703.281V256.294H725.79V249.541Z" fill="#C9E0FF"/>
<path d="M725.79 274.678H703.281V281.431H725.79V274.678Z" fill="#C9E0FF"/>
<path d="M725.79 299.438H703.281V306.19H725.79V299.438Z" fill="#C9E0FF"/>
<path d="M725.79 324.574H703.281V331.327H725.79V324.574Z" fill="#C9E0FF"/>
<path d="M725.79 349.334H703.281V356.087H725.79V349.334Z" fill="#C9E0FF"/>
<path fill-rule="evenodd" clip-rule="evenodd" d="M671.017 124.988H630.125V131.741H671.017V124.988ZM671.017 150.124H630.125V156.877H671.017V150.124ZM630.125 174.885H671.017V181.638H630.125V174.885ZM671.017 224.781H630.125V231.534H671.017V224.781ZM630.125 249.542H671.017V256.295H630.125V249.542ZM671.017 274.678H630.125V281.43H671.017V274.678ZM630.125 299.437H671.017V306.19H630.125V299.437ZM671.017 324.574H630.125V331.327H671.017V324.574ZM630.125 349.334H671.017V356.086H630.125V349.334Z" fill="url(#paint18_linear)"/>
<path d="M64.2266 255.242L317.073 329.498" stroke="url(#paint19_linear)" stroke-width="3" stroke-linecap="round"/>
<path d="M1072.56 331.377H1394.72" stroke="url(#paint20_linear)" stroke-width="3" stroke-linecap="round"/>
<circle opacity="0.2" cx="316.779" cy="329.674" r="25.0845" fill="url(#paint21_linear)"/>
<circle opacity="0.2" cx="1394.9" cy="331.084" r="25.0845" fill="url(#paint22_linear)"/>
<path d="M308.417 329.674L316.863 321.227L325.31 329.674L316.863 338.12L308.417 329.674Z" fill="#FFCF96"/>
<path d="M1386.54 331.084L1394.98 322.638L1403.43 331.084L1394.98 339.53L1386.54 331.084Z" fill="#FFCF96"/>
<circle cx="63.9326" cy="255.151" r="25.0845" fill="url(#paint23_linear)" fill-opacity="0.5"/>
<circle cx="650.93" cy="202.781" r="25.0845" transform="rotate(-45 650.93 202.781)" fill="#5FEFE6" fill-opacity="0.2"/>
<circle cx="967.273" cy="331.604" r="25.0845" transform="rotate(-45 967.273 331.604)" fill="url(#paint24_linear)" fill-opacity="0.5"/>
<circle cx="1072.08" cy="331.135" r="25.0845" transform="rotate(-45 1072.08 331.135)" fill="#C4FFE8" fill-opacity="0.34"/>
<rect opacity="0.4" x="58.0449" y="249.18" width="11.945" height="11.945" fill="#979AFF"/>
<rect opacity="0.4" x="642.543" y="202.721" width="11.945" height="11.945" transform="rotate(-45 642.543 202.721)" fill="#5FEFE6"/>
<rect x="958.887" y="331.545" width="11.945" height="11.945" rx="5.97249" transform="rotate(-45 958.887 331.545)" fill="#979AFF"/>
<rect x="1063.69" y="331.074" width="11.945" height="11.945" rx="5.97249" transform="rotate(-45 1063.69 331.074)" fill="#86E8D3"/>
<g opacity="0.8">
<path opacity="0.4" d="M501.302 141.979L317.542 328.088" stroke="url(#paint25_linear)" stroke-width="3" stroke-linecap="round"/>
<circle cx="501.948" cy="141.684" r="25.0845" fill="url(#paint26_linear)" fill-opacity="0.5"/>
<rect opacity="0.4" x="496.06" y="135.711" width="11.945" height="11.945" fill="#979AFF"/>
</g>
<path opacity="0.4" d="M651.224 202.605L966.576 331.378" stroke="url(#paint27_linear)" stroke-width="3" stroke-linecap="round"/>
<path d="M739.109 279.192L771.278 246.312L803.435 279.192H739.109Z" fill="white"/>
<path d="M803.446 279.191H739.109V371.91H803.446V279.191Z" fill="white"/>
<path d="M904.743 279.191H803.435V371.91H904.743V279.191Z" fill="url(#paint28_linear)"/>
<path d="M803.435 279.192L771.278 246.312H872.575L904.743 279.192H803.435Z" fill="#C9E0FF"/>
<path d="M789.451 284.781V298.2H778.058V284.781C778.058 282.249 779.577 280.224 781.856 279.464C782.362 279.211 783.121 279.211 783.628 279.211C786.919 279.211 789.451 281.743 789.451 284.781Z" fill="#C9E0FF"/>
<path d="M764.132 284.781V298.2H752.738V284.781C752.738 282.249 754.257 280.224 756.536 279.464C757.043 279.211 757.802 279.211 758.308 279.211C761.6 279.211 764.132 281.743 764.132 284.781Z" fill="#C9E0FF"/>
<path d="M789.451 316.178V329.597H778.058V316.178C778.058 313.646 779.577 311.62 781.856 310.861C782.362 310.607 783.121 310.607 783.628 310.607C786.919 310.607 789.451 313.139 789.451 316.178Z" fill="#C9E0FF"/>
<path d="M764.132 316.178V329.597H752.738V316.178C752.738 313.646 754.257 311.62 756.536 310.861C757.043 310.607 757.802 310.607 758.308 310.607C761.6 310.607 764.132 313.139 764.132 316.178Z" fill="#C9E0FF"/>
<path d="M789.451 347.574V360.993H778.058V347.574C778.058 345.042 779.577 343.017 781.856 342.257C782.362 342.004 783.121 342.004 783.628 342.004C786.919 342.004 789.451 344.536 789.451 347.574Z" fill="#C9E0FF"/>
<path d="M764.132 347.574V360.993H752.738V347.574C752.738 345.042 754.257 343.017 756.536 342.257C757.043 342.004 757.802 342.004 758.308 342.004C761.6 342.004 764.132 344.536 764.132 347.574Z" fill="#C9E0FF"/>
</g>
<rect x="1440.31" y="415.186" width="1440" height="128.779" transform="rotate(-180 1440.31 415.186)" fill="url(#paint29_linear)"/>
<defs>
<linearGradient id="paint0_linear" x1="1145.4" y1="303.65" x2="1145.4" y2="372.737" gradientUnits="userSpaceOnUse">
<stop stop-color="#F5F8FC"/>
<stop offset="1" stop-color="#DDECFF"/>
</linearGradient>
<linearGradient id="paint1_linear" x1="948.061" y1="243.021" x2="948.061" y2="297.44" gradientUnits="userSpaceOnUse">
<stop stop-color="#F5F8FC"/>
<stop offset="1" stop-color="#DDECFF"/>
</linearGradient>
<linearGradient id="paint2_linear" x1="966.838" y1="297.439" x2="966.838" y2="371.789" gradientUnits="userSpaceOnUse">
<stop stop-color="#F5F8FC"/>
<stop offset="1" stop-color="#DDECFF"/>
</linearGradient>
<linearGradient id="paint3_linear" x1="923.317" y1="297.08" x2="923.317" y2="356.267" gradientUnits="userSpaceOnUse">
<stop stop-color="#F5F8FC"/>
<stop offset="1" stop-color="#DDECFF"/>
</linearGradient>
<linearGradient id="paint4_linear" x1="1029.53" y1="233.635" x2="1029.53" y2="292.82" gradientUnits="userSpaceOnUse">
<stop stop-color="#F5F8FC"/>
<stop offset="1" stop-color="#DDECFF"/>
</linearGradient>
<linearGradient id="paint5_linear" x1="157.655" y1="237.383" x2="157.655" y2="371.781" gradientUnits="userSpaceOnUse">
<stop stop-color="#F5F8FC"/>
<stop offset="1" stop-color="#DDECFF"/>
</linearGradient>
<linearGradient id="paint6_linear" x1="108.635" y1="172.996" x2="108.635" y2="237.485" gradientUnits="userSpaceOnUse">
<stop stop-color="#F5F8FC"/>
<stop offset="1" stop-color="#DDECFF"/>
</linearGradient>
<linearGradient id="paint7_linear" x1="54.3571" y1="161.717" x2="54.4725" y2="207.123" gradientUnits="userSpaceOnUse">
<stop stop-color="#F5F8FC"/>
<stop offset="1" stop-color="#DDECFF"/>
</linearGradient>
<linearGradient id="paint8_linear" x1="287.408" y1="225.633" x2="287.408" y2="274.947" gradientUnits="userSpaceOnUse">
<stop stop-color="#F5F8FC"/>
<stop offset="1" stop-color="#DDECFF"/>
</linearGradient>
<linearGradient id="paint9_linear" x1="388.407" y1="225.633" x2="388.407" y2="371.884" gradientUnits="userSpaceOnUse">
<stop stop-color="#F5F8FC"/>
<stop offset="1" stop-color="#DDECFF"/>
</linearGradient>
<linearGradient id="paint10_linear" x1="264.436" y1="212.004" x2="287.122" y2="274.947" gradientUnits="userSpaceOnUse">
<stop stop-color="#F5F8FC"/>
<stop offset="1" stop-color="#B8D6FF"/>
</linearGradient>
<linearGradient id="paint11_linear" x1="1339.18" y1="225.633" x2="1339.18" y2="274.947" gradientUnits="userSpaceOnUse">
<stop stop-color="#F5F8FC"/>
<stop offset="1" stop-color="#DDECFF"/>
</linearGradient>
<linearGradient id="paint12_linear" x1="1362.15" y1="212.004" x2="1339.46" y2="274.947" gradientUnits="userSpaceOnUse">
<stop stop-color="#F5F8FC"/>
<stop offset="1" stop-color="#B8D6FF"/>
</linearGradient>
<linearGradient id="paint13_linear" x1="1366.64" y1="250.553" x2="1366.64" y2="371.885" gradientUnits="userSpaceOnUse">
<stop stop-color="#F5F8FC"/>
<stop offset="1" stop-color="#DDECFF"/>
</linearGradient>
<linearGradient id="paint14_linear" x1="574.272" y1="58.1914" x2="574.272" y2="371.796" gradientUnits="userSpaceOnUse">
<stop stop-color="#F5F8FC"/>
<stop offset="1" stop-color="#DDECFF"/>
</linearGradient>
<linearGradient id="paint15_linear" x1="543.809" y1="-437.367" x2="786.897" y2="-367.378" gradientUnits="userSpaceOnUse">
<stop stop-color="#F5F8FC"/>
<stop offset="1" stop-color="#B8D6FF"/>
</linearGradient>
<linearGradient id="paint16_linear" x1="489.402" y1="72.3027" x2="489.402" y2="371.795" gradientUnits="userSpaceOnUse">
<stop stop-color="#F5F8FC"/>
<stop offset="1" stop-color="#DDECFF"/>
</linearGradient>
<linearGradient id="paint17_linear" x1="713.786" y1="93.0996" x2="713.786" y2="371.843" gradientUnits="userSpaceOnUse">
<stop stop-color="#F5F8FC"/>
<stop offset="1" stop-color="#DDECFF"/>
</linearGradient>
<linearGradient id="paint18_linear" x1="656.394" y1="115.658" x2="650.571" y2="356.086" gradientUnits="userSpaceOnUse">
<stop stop-color="#F5F8FC"/>
<stop offset="1" stop-color="#DDECFF"/>
</linearGradient>
<linearGradient id="paint19_linear" x1="164.269" y1="182.107" x2="83.8721" y2="243.556" gradientUnits="userSpaceOnUse">
<stop stop-color="#FFEDD7"/>
<stop offset="1" stop-color="#EAE8FC"/>
</linearGradient>
<linearGradient id="paint20_linear" x1="1079.37" y1="57.3771" x2="1430.39" y2="115.315" gradientUnits="userSpaceOnUse">
<stop stop-color="#5FEFE6"/>
<stop offset="1" stop-color="#FFCF96"/>
</linearGradient>
<linearGradient id="paint21_linear" x1="290.97" y1="306.32" x2="363.246" y2="324.085" gradientUnits="userSpaceOnUse">
<stop offset="0.0001" stop-color="#FFE4C5"/>
<stop offset="1" stop-color="#FFEEEC"/>
</linearGradient>
<linearGradient id="paint22_linear" x1="1369.09" y1="307.73" x2="1441.37" y2="325.495" gradientUnits="userSpaceOnUse">
<stop offset="0.0001" stop-color="#FFE4C5"/>
<stop offset="1" stop-color="#FFEEEC"/>
</linearGradient>
<linearGradient id="paint23_linear" x1="38.124" y1="231.796" x2="110.4" y2="249.561" gradientUnits="userSpaceOnUse">
<stop offset="0.0001" stop-color="#E4E5FF"/>
<stop offset="1" stop-color="#FFEEEC"/>
</linearGradient>
<linearGradient id="paint24_linear" x1="941.464" y1="308.249" x2="1013.74" y2="326.014" gradientUnits="userSpaceOnUse">
<stop offset="0.0001" stop-color="#E4E5FF"/>
<stop offset="1" stop-color="#FFEEEC"/>
</linearGradient>
<linearGradient id="paint25_linear" x1="317.542" y1="333.258" x2="488.965" y2="133.412" gradientUnits="userSpaceOnUse">
<stop stop-color="#FFEDD7"/>
<stop offset="1" stop-color="#979AFF"/>
</linearGradient>
<linearGradient id="paint26_linear" x1="476.14" y1="118.33" x2="548.415" y2="136.094" gradientUnits="userSpaceOnUse">
<stop offset="0.0001" stop-color="#E4E5FF"/>
<stop offset="1" stop-color="#FFEEEC"/>
</linearGradient>
<linearGradient id="paint27_linear" x1="651.224" y1="202.605" x2="972.21" y2="315.337" gradientUnits="userSpaceOnUse">
<stop stop-color="#5FEFE6"/>
<stop offset="1" stop-color="#979AFF"/>
</linearGradient>
<linearGradient id="paint28_linear" x1="854.089" y1="279.191" x2="854.089" y2="371.91" gradientUnits="userSpaceOnUse">
<stop stop-color="#F5F8FC"/>
<stop offset="1" stop-color="#DDECFF"/>
</linearGradient>
<linearGradient id="paint29_linear" x1="2160.31" y1="455.506" x2="2160.31" y2="574.506" gradientUnits="userSpaceOnUse">
<stop stop-color="#F9FAFC"/>
<stop offset="1" stop-color="#F9FAFC" stop-opacity="0"/>
</linearGradient>
</defs>
</svg>
