<svg fill="none" height="416" width="1440" xmlns="http://www.w3.org/2000/svg" xmlns:xlink="http://www.w3.org/1999/xlink"><linearGradient id="a"><stop offset="0" stop-color="#f5f8fc"/><stop offset="1" stop-color="#ddecff"/></linearGradient><linearGradient id="b" gradientUnits="userSpaceOnUse" x1="1145.4" x2="1145.4" xlink:href="#a" y1="303.65" y2="372.737"/><linearGradient id="c" gradientUnits="userSpaceOnUse" x1="948.061" x2="948.061" xlink:href="#a" y1="243.021" y2="297.44"/><linearGradient id="d" gradientUnits="userSpaceOnUse" x1="966.838" x2="966.838" xlink:href="#a" y1="297.439" y2="371.789"/><linearGradient id="e" gradientUnits="userSpaceOnUse" x1="923.317" x2="923.317" xlink:href="#a" y1="297.08" y2="356.267"/><linearGradient id="f" gradientUnits="userSpaceOnUse" x1="1029.53" x2="1029.53" xlink:href="#a" y1="233.635" y2="292.82"/><linearGradient id="g" gradientUnits="userSpaceOnUse" x1="157.655" x2="157.655" xlink:href="#a" y1="237.383" y2="371.781"/><linearGradient id="h" gradientUnits="userSpaceOnUse" x1="108.635" x2="108.635" xlink:href="#a" y1="172.996" y2="237.485"/><linearGradient id="i" gradientUnits="userSpaceOnUse" x1="54.357" x2="54.472" xlink:href="#a" y1="161.717" y2="207.123"/><linearGradient id="j" gradientUnits="userSpaceOnUse" x1="287.408" x2="287.408" xlink:href="#a" y1="225.633" y2="274.947"/><linearGradient id="k" gradientUnits="userSpaceOnUse" x1="388.407" x2="388.407" xlink:href="#a" y1="225.633" y2="371.884"/><linearGradient id="l"><stop offset="0" stop-color="#f5f8fc"/><stop offset="1" stop-color="#b8d6ff"/></linearGradient><linearGradient id="m" gradientUnits="userSpaceOnUse" x1="264.436" x2="287.122" xlink:href="#l" y1="212.004" y2="274.947"/><linearGradient id="n" gradientUnits="userSpaceOnUse" x1="1339.18" x2="1339.18" xlink:href="#a" y1="225.633" y2="274.947"/><linearGradient id="o" gradientUnits="userSpaceOnUse" x1="1362.15" x2="1339.46" xlink:href="#l" y1="212.004" y2="274.947"/><linearGradient id="p" gradientUnits="userSpaceOnUse" x1="1366.64" x2="1366.64" xlink:href="#a" y1="250.553" y2="371.885"/><linearGradient id="q" gradientUnits="userSpaceOnUse" x1="574.272" x2="574.272" xlink:href="#a" y1="58.191" y2="371.796"/><linearGradient id="r" gradientUnits="userSpaceOnUse" x1="543.809" x2="786.897" xlink:href="#l" y1="-437.367" y2="-367.378"/><linearGradient id="s" gradientUnits="userSpaceOnUse" x1="489.402" x2="489.402" xlink:href="#a" y1="72.303" y2="371.795"/><linearGradient id="t" gradientUnits="userSpaceOnUse" x1="713.786" x2="713.786" xlink:href="#a" y1="93.1" y2="371.843"/><linearGradient id="u" gradientUnits="userSpaceOnUse" x1="656.394" x2="650.571" xlink:href="#a" y1="115.658" y2="356.086"/><linearGradient id="v" gradientUnits="userSpaceOnUse" x1="164.269" x2="83.872" y1="182.107" y2="243.556"><stop offset="0" stop-color="#ffedd7"/><stop offset="1" stop-color="#eae8fc"/></linearGradient><linearGradient id="w" gradientUnits="userSpaceOnUse" x1="1079.37" x2="1430.39" y1="57.377" y2="115.315"><stop offset="0" stop-color="#5fefe6"/><stop offset="1" stop-color="#ffcf96"/></linearGradient><linearGradient id="x"><stop offset="0" stop-color="#ffe4c5"/><stop offset="1" stop-color="#ffeeec"/></linearGradient><linearGradient id="y" gradientUnits="userSpaceOnUse" x1="290.97" x2="363.246" xlink:href="#x" y1="306.32" y2="324.085"/><linearGradient id="z" gradientUnits="userSpaceOnUse" x1="1369.09" x2="1441.37" xlink:href="#x" y1="307.73" y2="325.495"/><linearGradient id="A"><stop offset="0" stop-color="#e4e5ff"/><stop offset="1" stop-color="#ffeeec"/></linearGradient><linearGradient id="B" gradientUnits="userSpaceOnUse" x1="38.124" x2="110.4" xlink:href="#A" y1="231.796" y2="249.561"/><linearGradient id="C" gradientUnits="userSpaceOnUse" x1="941.464" x2="1013.74" xlink:href="#A" y1="308.249" y2="326.014"/><linearGradient id="D" gradientUnits="userSpaceOnUse" x1="317.542" x2="488.965" y1="333.258" y2="133.412"><stop offset="0" stop-color="#ffedd7"/><stop offset="1" stop-color="#979aff"/></linearGradient><linearGradient id="E" gradientUnits="userSpaceOnUse" x1="476.14" x2="548.415" xlink:href="#A" y1="118.33" y2="136.094"/><linearGradient id="F" gradientUnits="userSpaceOnUse" x1="651.224" x2="972.21" y1="202.605" y2="315.337"><stop offset="0" stop-color="#5fefe6"/><stop offset="1" stop-color="#979aff"/></linearGradient><linearGradient id="G" gradientUnits="userSpaceOnUse" x1="854.089" x2="854.089" xlink:href="#a" y1="279.191" y2="371.91"/><linearGradient id="H" gradientUnits="userSpaceOnUse" x1="2160.31" x2="2160.31" y1="455.506" y2="574.506"><stop offset="0" stop-color="#f9fafc"/><stop offset="1" stop-color="#f9fafc" stop-opacity="0"/></linearGradient><path d="m.31.865h1440v414.321h-1440v-414.32z" fill="#fff"/><g opacity=".4"><path d="m1107.61 303.747-39.99-43.335h75.65l39.98 43.335z" fill="#c9e0ff"/><path d="m1183.23 303.65h-75.66v69.087h75.66z" fill="url(#b)"/><path clip-rule="evenodd" d="m1107.57 303.697.04.05h-.04v68.989h-39.95v-112.324l39.91 43.238h.04z" fill="#fff" fill-rule="evenodd"/><path d="m1153.88 320.693h-16.26v10.91h16.26zm0 24.979h-16.26v10.909h16.26z" fill="#c9e0ff"/><path d="m942.094 297.44-37.554-54.419h49.489l37.553 54.419z" fill="url(#c)"/><path d="m991.582 297.439h-49.489v74.35h49.489z" fill="url(#d)"/><path clip-rule="evenodd" d="m904.54 243.021 37.554 54.419h-.012v74.35h-37.542z" fill="#fff" fill-rule="evenodd"/><path clip-rule="evenodd" d="m920.403 297.08h5.828v22.705h-5.828zm0 36.482h5.828v22.705h-5.828z" fill="url(#e)" fill-rule="evenodd"/><path d="m1067.82 232.577-38.16-30.98v-47.868l38.16 30.991z" fill="#c9e0ff" opacity=".8"/><path d="m991.485 232.577 38.175-30.98v-47.868l-38.175 30.991z" fill="#fff"/><g clip-rule="evenodd" fill-rule="evenodd"><path d="m991.485 232.577v140.284h76.335v-140.284l-38.16-30.979z" fill="#fff"/><path d="m1026.62 233.635h5.82v22.704h-5.82zm0 36.48h5.82v22.705h-5.82z" fill="url(#f)"/><path d="m102.764 237.383h73.592v46.446h36.19v87.951h-36.19v.001h-73.592z" fill="url(#g)"/></g><path d="m102.854 237.484h-102.544v134.398h102.544z" fill="#fff"/><path clip-rule="evenodd" d="m108.635 172.996 32.32 34.127h-64.64zm-32.32 34.127h64.64v30.362h-64.64z" fill="url(#h)" fill-rule="evenodd"/><path d="m76.315 207.123 32.32-34.127h-76.005l-32.32 34.127z" fill="url(#i)"/><path d="m76.315 207.123h-76.005v30.362h76.005z" fill="#fff"/><path d="m19.262 217.752h-10.257v13.567h10.257zm24.965 0h-10.256v13.567h10.256zm24.966 0h-10.257v13.567h10.257z" fill="#c9e0ff"/><path d="m241.363 225.633-54.943 49.314h147.044l54.932-49.314z" fill="url(#j)"/><path clip-rule="evenodd" d="m443.339 274.946-54.943-49.313-54.932 49.313v96.938h109.887v-96.938z" fill="url(#k)" fill-rule="evenodd"/><path d="m287.122 274.947-27.18-24.394h54.36z" fill="url(#m)"/><path clip-rule="evenodd" d="m287.122 274.947h46.342v96.938h-147.044v-96.938h46.342l27.18-24.394z" fill="#fff" fill-rule="evenodd"/><path d="m207.318 286.404h-6.912v18.987h6.912zm28.148 0h-6.912v18.987h6.912zm28.147 0h-6.911v18.987h6.911zm28.159 0h-6.911v18.987h6.911zm28.148 0h-6.911v18.987h6.911zm-112.602 33.532h-6.912v18.986h6.912zm28.148 0h-6.912v18.986h6.912zm28.147 0h-6.911v18.986h6.911zm28.159 0h-6.911v18.986h6.911z" fill="#c9e0ff"/><path d="m1385.22 225.633 54.95 49.314h-147.05l-54.93-49.314z" fill="url(#n)"/><path clip-rule="evenodd" d="m1183.25 274.947h109.87l-54.93-49.314zm109.96.033h-109.98v97.755h109.98z" fill="#fff" fill-rule="evenodd"/><path d="m1339.46 274.947 27.18-24.394h-54.36z" fill="url(#o)"/><path clip-rule="evenodd" d="m1366.64 250.553 27.18 24.394-.06.034h46.55v97.755h-147.1v-97.755h46.31l-.06-.034z" fill="url(#p)" fill-rule="evenodd"/><path d="m1419.27 286.404h6.91v18.987h-6.91zm-28.15 0h6.91v18.987h-6.91zm-28.15 0h6.91v18.987h-6.91zm-28.16 0h6.91v18.987h-6.91zm-28.15 0h6.92v18.987h-6.92zm112.61 33.534h6.91v18.986h-6.91zm-56.3 0h6.91v18.986h-6.91zm-28.16 0h6.91v18.986h-6.91zm-28.15 0h6.92v18.986h-6.92z" fill="#c9e0ff"/><path d="m538.599 58.191v313.605h-98.393v-253.628l.784-.392 1.96-1.176 19.992-12.152 2.744-1.96 21.952-13.328 3.136-1.568 21.561-13.328 3.136-1.96z" fill="#fff"/><path d="m609.945 58.191h-71.345v313.605h71.345z" fill="url(#q)"/><path clip-rule="evenodd" d="m564.863 58.191h-3.136v58.409h-23.913v3.136h23.913v48.609h-23.913v3.136h23.913v49.001h-23.913v3.136h23.913v49.001h-23.913v3.136h23.913v48.608h-23.913v3.137h23.913v44.296h3.136v-44.296h21.952v44.296h3.136v-44.296h20.385v-3.137h-20.385v-48.608h20.385v-3.136h-20.385v-49.001h20.385v-3.136h-20.385v-49.001h20.385v-3.136h-20.385v-48.609h20.385v-3.136h-20.385v-58.409h-3.136v58.409h-21.952zm21.952 61.545h-21.952v48.609h21.952zm0 51.745h-21.952v49.001h21.952zm0 52.137h-21.952v49.001h21.952zm0 52.137h-21.952v48.608h21.952z" fill="url(#r)" fill-opacity=".42" fill-rule="evenodd"/><path clip-rule="evenodd" d="m515.47 119.736v48.608h23.129v3.136h-23.129v49.001h23.129v3.136h-23.129v49.001h23.129v3.136h-23.129v48.608h23.129v3.136h-23.129v44.297h-3.136v-44.297h-21.559v44.297h-3.137v-44.297h-21.952v44.297h-2.744v-44.297h-22.736v-3.136h22.736v-48.608h-22.736v-3.136h22.736v-49.001h-22.736v-3.136h22.736v-49.001h-22.736v-3.136h22.736v-48.608h-22.736v-1.568l.784-.392 1.96-1.176h19.992v-12.153l2.744-1.96v14.113h21.952v-27.44l3.137-1.569v29.009h21.559v-42.337l3.136-1.96v44.297h23.129v3.136zm-49.784 204.626h21.952v-48.608h-21.952zm25.089 0h21.559v-48.608h-21.559zm21.559-100.745v49.001h-21.559v-49.001zm-24.696 0v49.001h-21.952v-49.001zm-21.952-3.136h21.952v-49.001h-21.952zm25.089 0h21.559v-49.001h-21.559zm21.559-100.745v48.608h-21.559v-48.608zm-24.696 0v48.608h-21.952v-48.608z" fill="url(#s)" fill-rule="evenodd"/><path d="m738.921 93.1h-129.055v278.743h129.055z" fill="#fff"/><path d="m738.921 93.1h-50.271v278.743h50.271z" fill="url(#t)"/><path d="m725.79 124.988h-22.509v6.753h22.509zm0 25.137h-22.509v6.753h22.509zm0 24.76h-22.509v6.753h22.509zm0 25.136h-22.509v6.753h22.509zm0 24.76h-22.509v6.753h22.509zm0 24.76h-22.509v6.753h22.509zm0 25.137h-22.509v6.753h22.509zm0 24.76h-22.509v6.752h22.509zm0 25.136h-22.509v6.753h22.509zm0 24.76h-22.509v6.753h22.509z" fill="#c9e0ff"/><path clip-rule="evenodd" d="m671.017 124.988h-40.892v6.753h40.892zm0 25.136h-40.892v6.753h40.892zm-40.892 24.761h40.892v6.753h-40.892zm40.892 49.896h-40.892v6.753h40.892zm-40.892 24.761h40.892v6.753h-40.892zm40.892 25.136h-40.892v6.752h40.892zm-40.892 24.759h40.892v6.753h-40.892zm40.892 25.137h-40.892v6.753h40.892zm-40.892 24.76h40.892v6.752h-40.892z" fill="url(#u)" fill-rule="evenodd"/><path d="m64.227 255.242 252.846 74.256" stroke="url(#v)" stroke-linecap="round" stroke-width="3"/><path d="m1072.56 331.377h322.16" stroke="url(#w)" stroke-linecap="round" stroke-width="3"/><circle cx="316.779" cy="329.674" fill="url(#y)" opacity=".2" r="25.084"/><circle cx="1394.9" cy="331.084" fill="url(#z)" opacity=".2" r="25.084"/><path d="m308.417 329.674 8.446-8.447 8.447 8.447-8.447 8.446zm1078.123 1.41 8.44-8.446 8.45 8.446-8.45 8.446z" fill="#ffcf96"/><circle cx="63.933" cy="255.151" fill="url(#B)" fill-opacity=".5" r="25.084"/><circle cx="650.93" cy="202.781" fill="#5fefe6" fill-opacity=".2" r="25.084" transform="matrix(.70710678 -.70710678 .70710678 .70710678 47.265163 519.670197)"/><circle cx="967.273" cy="331.604" fill="url(#C)" fill-opacity=".5" r="25.084" transform="matrix(.70710678 -.70710678 .70710678 .70710678 48.828265 781.08986)"/><circle cx="1072.08" cy="331.135" fill="#c4ffe8" fill-opacity=".34" r="25.084" transform="matrix(.70710678 -.70710678 .70710678 .70710678 79.857158 855.062234)"/><path d="m58.045 249.18h11.945v11.945h-11.945z" fill="#979aff" opacity=".4"/><path d="m642.543 202.721 8.446-8.446 8.447 8.446-8.447 8.446z" fill="#5fefe6" opacity=".4"/><rect fill="#979aff" height="11.945" rx="5.972" transform="matrix(.70710678 -.70710678 .70710678 .70710678 46.413782 775.142782)" width="11.945" x="958.887" y="331.545"/><rect fill="#86e8d3" height="11.945" rx="5.972" transform="matrix(.70710678 -.70710678 .70710678 .70710678 77.442917 849.111742)" width="11.945" x="1063.69" y="331.074"/><g opacity=".8"><path d="m501.302 141.979-183.76 186.109" opacity=".4" stroke="url(#D)" stroke-linecap="round" stroke-width="3"/><circle cx="501.948" cy="141.684" fill="url(#E)" fill-opacity=".5" r="25.084"/><path d="m496.06 135.711h11.945v11.945h-11.945z" fill="#979aff" opacity=".4"/></g><path d="m651.224 202.605 315.352 128.773" opacity=".4" stroke="url(#F)" stroke-linecap="round" stroke-width="3"/><path d="m739.109 279.192 32.169-32.88 32.157 32.88z" fill="#fff"/><path d="m803.446 279.191h-64.337v92.719h64.337z" fill="#fff"/><path d="m904.743 279.191h-101.308v92.719h101.308z" fill="url(#G)"/><path d="m803.435 279.192-32.157-32.88h101.297l32.168 32.88zm-13.984 5.589v13.419h-11.393v-13.419c0-2.532 1.519-4.557 3.798-5.317.506-.253 1.265-.253 1.772-.253 3.291 0 5.823 2.532 5.823 5.57zm-25.319 0v13.419h-11.394v-13.419c0-2.532 1.519-4.557 3.798-5.317.507-.253 1.266-.253 1.772-.253 3.292 0 5.824 2.532 5.824 5.57zm25.319 31.397v13.419h-11.393v-13.419c0-2.532 1.519-4.558 3.798-5.317.506-.254 1.265-.254 1.772-.254 3.291 0 5.823 2.532 5.823 5.571zm-25.319 0v13.419h-11.394v-13.419c0-2.532 1.519-4.558 3.798-5.317.507-.254 1.266-.254 1.772-.254 3.292 0 5.824 2.532 5.824 5.571zm25.319 31.396v13.419h-11.393v-13.419c0-2.532 1.519-4.557 3.798-5.317.506-.253 1.265-.253 1.772-.253 3.291 0 5.823 2.532 5.823 5.57zm-25.319 0v13.419h-11.394v-13.419c0-2.532 1.519-4.557 3.798-5.317.507-.253 1.266-.253 1.772-.253 3.292 0 5.824 2.532 5.824 5.57z" fill="#c9e0ff"/></g><path d="m1440.31 415.186h1440v128.779h-1440z" fill="url(#H)" transform="matrix(-1 0 0 -1 2880.62 830.372)"/></svg>