<svg xmlns="http://www.w3.org/2000/svg" xmlns:xlink="http://www.w3.org/1999/xlink" width="476" height="404"><defs><linearGradient id="c" x1="358.79" y1="254.11" x2="100.01" y2="-16.38" gradientTransform="matrix(1 0 0 -1 0 404)" gradientUnits="userSpaceOnUse"><stop offset="0" stop-color="#ff8943"/><stop offset="1" stop-color="#ffc087"/></linearGradient><linearGradient id="d" x1="133.34" y1="106.96" x2="342.46" y2="310.7" gradientTransform="matrix(1 0 0 -1 0 404)" gradientUnits="userSpaceOnUse"><stop offset="0" stop-color="#ffd4ab"/><stop offset=".7" stop-color="#ffbd9e" stop-opacity=".64"/><stop offset="1" stop-color="#ffad9f" stop-opacity=".2"/></linearGradient><linearGradient id="a" x1="262.36" y1="268.56" x2="330.26" y2="293.97" gradientTransform="matrix(1 0 0 -1 0 404)" gradientUnits="userSpaceOnUse"><stop offset="0" stop-color="#fff0e2"/><stop offset="1" stop-color="#ffecec"/></linearGradient><linearGradient id="e" x1="198.56" y1="245.28" x2="385.12" y2="413.7" gradientTransform="matrix(1 0 0 -1 0 404)" gradientUnits="userSpaceOnUse"><stop offset="0" stop-color="#ffe9d5"/><stop offset="1" stop-color="#ff9f9f"/></linearGradient><linearGradient id="f" x1="180.19" y1="212.75" x2="452.62" y2="439.37" xlink:href="#a"/><linearGradient id="g" x1="291.02" y1="294.01" x2="403.21" y2="379.84" gradientTransform="matrix(1 0 0 -1 0 404)" gradientUnits="userSpaceOnUse"><stop offset="0" stop-color="#ffe9d5"/><stop offset="1" stop-color="#ffe4e4"/></linearGradient><linearGradient id="b" x1="231.13" y1="169.62" x2="235.87" y2="223.47" gradientTransform="matrix(1 0 0 -1 0 404)" gradientUnits="userSpaceOnUse"><stop offset="0" stop-color="#ffe9d5"/><stop offset="1" stop-color="#ffe7e7"/></linearGradient><linearGradient id="h" x1="231.13" y1="134.95" x2="235.87" y2="188.8" xlink:href="#b"/><linearGradient id="i" x1="231.13" y1="100.28" x2="235.87" y2="154.13" xlink:href="#b"/></defs><path d="M100.61 172.45L156.18 321c15.8 2.73 25.53 6.45 25.53 10.56a13.7 13.7 0 01-.1 5.93h.1l-.31.87a26.69 26.69 0 01-2 5.08c-14.72 34.93-47.28 59.57-87.35 59.57-39.49 0-73.2-23.92-88.42-58a31.35 31.35 0 01-2.73-6.76l-.24-.68h.08a13.91 13.91 0 01-.22-5.25l.14-.71v-.3c.46-4.14 10.86-7.88 27.37-10.57L83.5 172.45c2.67-7.19 14.42-7.19 17.11 0zm293.13 0L449.3 321c15.06 2.56 24.7 6 25.7 9.89l-.1-.21.23.49a10 10 0 01.25 6.38 20.83 20.83 0 01-1.49 4c-14.35 36-47.91 61.55-88.74 61.55-40.39 0-74.74-25-89.43-60.39a22.28 22.28 0 01-1.93-4.95v-.16l-.07-.4a16.54 16.54 0 01.27-5.29l.12-.59V331.03c.95-4 11.1-7.58 27-10.2l55.47-148.35c2.72-7.24 14.47-7.24 17.16-.05zM294.17 331l-.05.19zM92.06 201.83L48.53 318.21a488.2 488.2 0 0142.65-1.78h1.74c15.51.05 30.07.75 42.73 1.95zm293.13 0l-43.54 116.41a482.56 482.56 0 0143-1.81h1.74c15.39.05 29.83.74 42.42 1.92zM239.91.11s21.67 68.2 21.67 80.28a21.66 21.66 0 01-11.6 19 32.93 32.93 0 0114.4 9.33c8.61-7.52 21.3-14.51 39.5-14.51 20.82 0 38.72 9.12 54.51 17.18 5 2.57 9.91 5 14.42 6.94a18.27 18.27 0 0113.33-5.87 18.63 18.63 0 010 37.26 18.25 18.25 0 01-17.37-13.17 202.94 202.94 0 01-18.62-8.7c-14-7.12-29.82-15.2-46.27-15.2-15.81 0-25.68 7.39-31.31 13.65a34.39 34.39 0 01.48 4.79 33.15 33.15 0 11-66.29 0 34.68 34.68 0 01.48-4.81c-5.65-6.27-15.52-13.63-31.31-13.63-16.45 0-32.3 8.1-46.28 15.21A201.74 201.74 0 01111 136.6a18.25 18.25 0 01-17.37 13.17 18.64 18.64 0 010-37.28 18.32 18.32 0 0113.37 5.87c4.51-1.9 9.38-4.35 14.4-6.94 15.8-8.06 33.71-17.18 54.53-17.18 18.2 0 30.89 7 39.5 14.51a32.84 32.84 0 0114.4-9.33 21.66 21.66 0 01-11.6-19c0-12.11 21.68-80.31 21.68-80.31z" fill="url(#c)"/><path d="M259.54 111.09c20.69 3.08 99.94 13.55 119.66 16.9a3.35 3.35 0 012.74 3.84l-21.08 124-19.12 112.6a3.33 3.33 0 01-3.84 2.72l-52.26-8.88L166.57 342z" fill="#ffac9d" fill-rule="evenodd" opacity=".7"/><path d="M192.15 99.89L72 116.88a3.32 3.32 0 00-2.7 3.85l3.52 20.55 17.73 103.39 19.28 112.58a3.37 3.37 0 003.86 2.72l52.25-9 106.26-20.2z" fill="#f9ac91" fill-rule="evenodd" opacity=".8"/><path d="M333.07 271.06v-156.8c0-1-.43-1.17-2-2.67l-38-36.25c-1.8-1.7-2.1-2.13-3.15-2.13H132.45a3.48 3.48 0 00-3.45 3.47V327a3.49 3.49 0 003.47 3.48h197.14a3.48 3.48 0 003.46-3.48z" fill-rule="evenodd" fill="url(#d)"/><path d="M284.7 133.62c.46-9.58-6.24-15.94-13.79-20.31L266 142.16c3.4-.19 5.06 1.1 5.66 1.71.76.76 2.65 3 .38 6.64 4.72-.76 12.1-5.31 12.66-16.89z" fill="url(#a)"/><path d="M220.29 100l-5.86-5.89c8.82-1.07 32.07.31 54.58 14.43a11.56 11.56 0 010 3.79l1.89.95c1.64 2.34 4.42 9 2.45 16.89s-5.35 11.26-6.8 11.95c-3 0-8.15 1.75-9.82 9.49s-4.84 9.43-6.23 9.3l-33.23.38-21.91-12.9-3.21-26.76 6.23-8.35 11.14-9.11 7.94-3.22zm39.25 11a12.27 12.27 0 01-3.22 2.46c-8.56-1.82-11.65-6.25-11.65-6.25 8.08 0 15.36 1.87 20.69 5.12a37.35 37.35 0 00-5.82-1.24z" fill-rule="evenodd" fill="url(#e)"/><path d="M256.44 151.66a46.13 46.13 0 01-20.28 4.54c-21 0-38-13.17-38-29.41 0-12 9.28-22.32 22.57-26.9-25.28 1.46-45.61 21.77-45.61 46.84 0 28.93 25.79 52.83 57.6 52.83 23.76 0 43.53-13.77 53.87-32.19-14.19 3.19-31.03-2.89-30.15-15.71z" fill-rule="evenodd" fill="url(#f)"/><path d="M331.43 111.8l-35.76-36.44c-1.69-1.72-2-2.15-3-2.15h-2.44l.07 34.56c0 7.74 6.62 7.25 9.81 7.25h33.13v-.54c.04-1-.36-1.17-1.81-2.68z" fill-rule="evenodd" opacity=".5" fill="url(#g)" style="isolation:isolate"/><path d="M301.76 229.3h-139.5a4.88 4.88 0 110-9.76h139.5a4.88 4.88 0 010 9.76z" opacity=".5" fill="url(#b)" style="isolation:isolate"/><path d="M301.76 264h-139.5a4.88 4.88 0 110-9.76h139.5a4.88 4.88 0 110 9.76z" opacity=".5" fill="url(#h)" style="isolation:isolate"/><path d="M301.76 298.64h-139.5a4.88 4.88 0 010-9.76h139.5a4.88 4.88 0 010 9.76z" opacity=".5" fill="url(#i)" style="isolation:isolate"/></svg>