<svg fill="none" height="404" viewBox="0 0 476 404" width="476" xmlns="http://www.w3.org/2000/svg" xmlns:xlink="http://www.w3.org/1999/xlink"><linearGradient id="a" gradientUnits="userSpaceOnUse" x1="128.981" x2="755.044" y1="293.462" y2="-75.9086"><stop offset="0" stop-color="#ffd4ab"/><stop offset="1" stop-color="#ff7c7c"/></linearGradient><linearGradient id="b"><stop offset="0" stop-color="#fff0e2"/><stop offset="1" stop-color="#ffecec"/></linearGradient><linearGradient id="c" gradientUnits="userSpaceOnUse" x1="265.999" x2="333.893" xlink:href="#b" y1="145.151" y2="119.737"/><linearGradient id="d" gradientUnits="userSpaceOnUse" x1="192.149" x2="378.708" y1="151.615" y2="-16.8044"><stop offset="0" stop-color="#ffe9d5"/><stop offset="1" stop-color="#ff9f9f"/></linearGradient><linearGradient id="e" gradientUnits="userSpaceOnUse" x1="175.164" x2="447.595" xlink:href="#b" y1="185.207" y2="-41.4124"/><linearGradient id="f" gradientUnits="userSpaceOnUse" x1="290.267" x2="402.456" y1="109.005" y2="23.1697"><stop offset="0" stop-color="#ffe9d5"/><stop offset="1" stop-color="#ffe4e4"/></linearGradient><linearGradient id="g"><stop offset="0" stop-color="#ffe9d5"/><stop offset="1" stop-color="#ffe7e7"/></linearGradient><linearGradient id="h" gradientUnits="userSpaceOnUse" x1="157.38" x2="162.115" xlink:href="#g" y1="227.894" y2="174.041"/><linearGradient id="i" gradientUnits="userSpaceOnUse" x1="157.38" x2="162.115" xlink:href="#g" y1="262.566" y2="208.714"/><linearGradient id="j" gradientUnits="userSpaceOnUse" x1="157.38" x2="162.115" xlink:href="#g" y1="297.238" y2="243.385"/><linearGradient id="k" gradientUnits="userSpaceOnUse" x1="326.288" x2="67.501" y1="118.794" y2="389.277"><stop offset="0" stop-color="#ff4a4a"/><stop offset=".228034" stop-color="#ff625a" stop-opacity=".46"/><stop offset="1" stop-color="#ffae8b"/></linearGradient><g clip-rule="evenodd" fill-rule="evenodd"><path d="m318.297 118.501c20.69 3.081 41.187 6.138 60.908 9.486 1.808.317 3.037 2.036 2.738 3.84l-21.079 123.984-19.123 112.602c-.318 1.808-2.037 3.037-3.843 2.72l-52.256-8.886-119.069-20.233z" fill="#ffac9d"/><path d="m131.55 106.665-59.5496 10.211c-1.7972.315-3.0204 2.038-2.7053 3.854l3.5206 20.552 17.7316 103.387 19.2877 112.58c.315 1.798 2.057 3.02 3.854 2.724l52.25-8.969 95.55-16.382 22.475-3.855h-11.765z" fill="#f9ac91"/><path d="m333.071 271.056v-154.646-1.612-.537c0-1.001-.426-1.168-1.964-2.669l-38.001-36.2478c-1.798-1.7051-2.094-2.1313-3.15-2.1313h-2.594-154.916c-1.908 0-3.465 1.5566-3.465 3.4656v250.3615c0 1.909 1.557 3.484 3.465 3.484h197.16c1.908 0 3.465-1.575 3.465-3.484z" fill="url(#a)"/></g><path d="m284.695 133.619c.461-9.583-6.232-15.941-13.786-20.306l-4.91 28.846c3.399-.19 5.061 1.101 5.665 1.708.756.759 2.644 3.036.378 6.642 4.721-.759 12.095-5.314 12.653-16.89z" fill="url(#c)"/><path clip-rule="evenodd" d="m220.287 100.036-5.854-5.8831c8.813-1.0754 32.066.3036 54.577 14.4231.377 1.518 0 3.795 0 3.795l1.888.949c1.637 2.34 4.419 8.995 2.455 16.89-1.964 7.894-5.351 11.26-6.798 11.955-3.022 0-8.159 1.746-9.82 9.489-1.662 7.743-4.847 9.425-6.232 9.299l-33.237.379-21.906-12.904-3.211-26.758 6.232-8.35 11.142-9.109 7.932-3.226zm39.255 11.053c-1.466 1.527-2.836 2.259-3.227 2.458-8.559-1.82-11.642-6.248-11.642-6.248 8.073-.05 15.359 1.87 20.689 5.118 0 0-2.885-.935-5.82-1.328z" fill="url(#d)" fill-rule="evenodd"/><path clip-rule="evenodd" d="m256.442 151.657c-5.867 2.879-12.822 4.546-20.28 4.546-20.964 0-37.958-13.169-37.958-29.415 0-12 9.272-22.321 22.568-26.8964-25.287 1.4574-45.608 21.7724-45.608 46.8384 0 28.93 25.788 52.833 57.598 52.833 23.754 0 43.527-13.772 53.865-32.198-14.225 3.199-31.065-2.883-30.185-15.708z" fill="url(#e)" fill-rule="evenodd"/><path clip-rule="evenodd" d="m331.429 111.799-35.757-36.4433c-1.691-1.7143-1.97-2.1428-2.964-2.1428h-2.441l.07 34.5611c0 7.732 6.625 7.248 9.815 7.248h33.125v-.541c0-1.005-.401-1.173-1.848-2.682z" fill="url(#f)" fill-rule="evenodd" opacity=".5"/><path d="m301.758 229.3h-139.499c-2.695 0-4.879-2.185-4.879-4.881s2.184-4.881 4.879-4.881h139.499c2.694 0 4.879 2.185 4.879 4.881s-2.184 4.881-4.879 4.881z" fill="url(#h)" opacity=".5"/><path d="m301.758 263.973h-139.499c-2.695 0-4.879-2.185-4.879-4.881s2.184-4.881 4.879-4.881h139.499c2.694 0 4.879 2.185 4.879 4.881s-2.184 4.881-4.879 4.881z" fill="url(#i)" opacity=".5"/><path d="m301.758 298.644h-139.499c-2.695 0-4.879-2.185-4.879-4.88 0-2.696 2.184-4.881 4.879-4.881h139.499c2.694 0 4.879 2.185 4.879 4.881 0 2.695-2.184 4.88-4.879 4.88z" fill="url(#j)" opacity=".5"/><path d="m100.61 172.454 55.568 148.584c15.804 2.73 25.533 6.453 25.533 10.557l-.001.05c.404 1.802.372 3.775-.097 5.92l.098.002-.311.873c-.429 1.603-1.091 3.298-1.988 5.085-14.723 34.925-47.284 59.567-87.3568 59.567-39.4839 0-73.191-23.923-88.41076-58.032-1.30404-2.456-2.21742-4.726-2.744221-6.813-.079152-.222-.160614-.451-.241268-.68l.081018-.003c-.412856-1.913-.487654-3.665-.224394-5.255l.143376-.714.016391-.292c.466608-4.146 10.865758-7.885 27.377858-10.578l55.4473-148.271c2.6688-7.193 14.4223-7.193 17.1095 0zm293.131-.019 55.556 148.55c15.067 2.577 24.688 6.052 25.745 9.901l-.1-.201.228.485c.767 1.841.849 3.965.248 6.375l.002.004c-.319 1.258-.812 2.576-1.487 3.969-14.348 35.992-47.917 61.556-88.747 61.556-40.389 0-74.734-25.034-89.429-60.395-.874-1.731-1.571-3.393-1.926-4.951l-.034-.16c-.002-.006-.005-.013-.007-.019l.003-.004-.071-.399c-.212-1.408-.122-3.17.269-5.285l.116-.589.017-.102.036-.191c.951-3.99 11.103-7.583 26.999-10.201l55.473-148.343c2.668-7.192 14.422-7.192 17.109 0zm-99.575 158.544-.042.191h.004zm-202.1108-129.147-43.5253 116.382c12.7095-1.139 27.2317-1.785 42.6548-1.785l1.7402.002c15.5091.049 30.0631.752 42.7241 1.95zm293.1308 0-43.539 116.41c12.783-1.157 27.417-1.813 42.966-1.813l1.74.002c15.383.049 29.827.74 42.415 1.921zm-145.28-201.725555s21.679 68.199955 21.679 80.279655c0 8.3174-4.789 15.3439-11.607 19.0323 5.611 1.8256 10.547 5.0346 14.404 9.3316 8.609-7.524 21.295-14.5138 39.501-14.5138 20.82 0 38.715 9.1288 54.509 17.1878 5.027 2.564 9.907 5.017 14.422 6.935 3.363-3.578 8.061-5.865 13.326-5.865 10.199 0 18.462 8.336 18.462 18.627 0 10.29-8.263 18.626-18.462 18.626-8.281 0-15.026-5.588-17.366-13.167-6.05-2.324-12.247-5.459-18.626-8.705-13.966-7.119-29.814-15.197-46.265-15.197-15.812 0-25.682 7.396-31.312 13.648.219 1.586.475 3.153.475 4.795 0 18.46-14.843 33.435-33.14 33.435-18.298 0-33.141-14.975-33.141-33.435 0-1.642.256-3.228.476-4.814-5.649-6.27-15.519-13.629-31.313-13.629-16.451 0-32.299 8.097-46.283 15.215-6.361 3.246-12.558 6.381-18.608 8.705-2.34 7.58-9.085 13.168-17.3653 13.168-10.1998 0-18.462-8.355-18.462-18.645 0-10.291 8.2622-18.627 18.462-18.627 5.2644 0 9.9623 2.305 13.3253 5.865 4.515-1.9 9.378-4.353 14.404-6.935 15.794-8.059 33.707-17.1878 54.527-17.1878 18.206 0 30.892 6.9898 39.502 14.5138 3.857-4.297 8.792-7.524 14.404-9.3316-6.818-3.6884-11.608-10.6965-11.608-19.0323 0-12.0797 21.68-80.279655 21.68-80.279655z" fill="url(#k)"/></svg>